<svg width="70" height="71" viewBox="0 0 70 71" fill="none" xmlns="http://www.w3.org/2000/svg">
<path fill-rule="evenodd" clip-rule="evenodd" d="M8.24859 13.1243C15.3419 6.03103 27.7058 5.98575 34.8106 13.0905C34.8812 13.1612 34.9461 13.2356 35.0051 13.3129C39.0641 10.1696 43.735 7.81341 48.9401 7.80011C53.6044 7.7882 58.2798 9.56333 61.8408 13.1243C63.4715 14.7551 64.8265 16.5221 65.753 18.7303C66.6776 20.934 67.1201 23.4446 67.1157 26.4971C67.1142 35.1637 61.1454 43.436 54.6641 50.0464C48.544 56.2883 41.5175 61.4889 37.2409 64.6542C36.9223 64.89 36.6189 65.1145 36.3323 65.3273C35.5556 65.9042 34.4927 65.9042 33.7159 65.3273C33.4294 65.1145 33.126 64.89 32.8074 64.6542C28.5308 61.4889 21.5042 56.2883 15.3842 50.0464C8.91088 43.4441 2.94871 35.1841 2.93261 26.5291C2.93296 26.5408 2.93333 26.5525 2.9337 26.5643L2.93257 26.4939C2.93257 26.5056 2.93259 26.5173 2.93261 26.5291C2.78701 21.699 4.55897 16.814 8.24859 13.1243ZM31.6776 16.1639C26.2925 10.8142 16.7327 10.8464 11.3517 16.2274C8.54584 19.0333 7.20187 22.7435 7.31991 26.4236C7.32066 26.447 7.32104 26.4705 7.32104 26.4939C7.32104 33.2946 12.1342 40.4633 18.5178 46.974C24.1965 52.7659 30.7201 57.6465 35.0241 60.8348C36.8134 59.5094 38.9862 57.8915 41.3224 56.0373L35.0827 50.2776C34.1922 49.4557 34.1367 48.0675 34.9586 47.177C35.7806 46.2865 37.1688 46.231 38.0593 47.053L44.7514 53.2303C46.5464 51.711 48.3731 50.0785 50.1439 48.355L43.8481 42.5434C42.9576 41.7215 42.9021 40.3333 43.7241 39.4428C44.546 38.5523 45.9342 38.4968 46.8247 39.3188L53.206 45.2092C54.8487 43.4194 56.3553 41.5882 57.6619 39.7359C57.1028 39.1759 56.5332 38.6049 55.9556 38.026C54.3912 36.4578 52.7685 34.8313 51.1395 33.2079C47.9959 30.0752 42.8647 30.1309 39.6644 33.3329C38.5591 34.4387 37.4482 35.5426 36.3608 36.6158C33.0385 39.8946 27.7268 39.7591 24.4935 36.4906C23.066 35.0476 21.6304 33.6109 20.1899 32.1704C19.3814 31.3619 19.3293 30.0679 20.0702 29.197C20.754 28.3932 21.4802 27.5167 22.2453 26.5931C24.9521 23.3259 28.1465 19.4702 31.6776 16.1639ZM60.043 35.9094C61.7307 32.7592 62.7272 29.5884 62.7272 26.4939V26.4907C62.7311 23.8715 62.3524 21.968 61.7063 20.4282C61.0621 18.8928 60.0968 17.5867 58.7377 16.2275C56.0356 13.5254 52.4957 12.1795 48.9513 12.1886C44.1069 12.2009 39.469 14.9646 35.037 19.0335C31.5951 22.1933 28.5263 25.8953 25.7389 29.2578C25.3935 29.6745 25.0524 30.0859 24.7154 30.4905C25.6824 31.4589 26.6494 32.4298 27.6134 33.4044C29.1932 35.0014 31.7293 35.0209 33.2782 33.4923C34.3584 32.4263 35.4621 31.3295 36.5605 30.2305C41.4091 25.3795 49.316 25.1951 54.2373 30.0994C55.8692 31.7257 57.5022 33.3627 59.0711 34.9352C59.398 35.263 59.7222 35.5879 60.043 35.9094Z" fill="#6F49E8"/>
</svg>
