<svg width="32" height="24" viewBox="0 0 32 24" fill="none" xmlns="http://www.w3.org/2000/svg">
<path fill-rule="evenodd" clip-rule="evenodd" d="M3.1875 1.27211C1.97938 1.27211 1 2.25149 1 3.45961V20.9596C1 22.1677 1.97938 23.1471 3.1875 23.1471H28.8125C30.0206 23.1471 31 22.1677 31 20.9596V3.45961C31 2.25149 30.0206 1.27211 28.8125 1.27211H3.1875ZM2.875 3.45961C2.875 3.28702 3.01491 3.14711 3.1875 3.14711H28.8125C28.9851 3.14711 29.125 3.28702 29.125 3.45961V4.52407L16.1749 13.2741C16.0692 13.3455 15.9307 13.3455 15.825 13.2741L2.875 4.52412V3.45961ZM2.875 6.787V20.9596C2.875 21.1322 3.01491 21.2721 3.1875 21.2721H28.8125C28.9851 21.2721 29.125 21.1322 29.125 20.9596V6.78695L17.2247 14.8277C16.4847 15.3277 15.5152 15.3277 14.7753 14.8277L2.875 6.787Z" fill="#6F49E8" stroke="#6F49E8" stroke-linejoin="round"/>
</svg>
