<svg width="32" height="35" viewBox="0 0 32 35" fill="none" xmlns="http://www.w3.org/2000/svg">
<path d="M17.5 17.4814C18.3967 16.9626 19 15.9931 19 14.8827C19 13.2259 17.6569 11.8827 16 11.8827C14.3431 11.8827 13 13.2259 13 14.8827C13 15.9931 13.6033 16.9626 14.5 17.4814V21.6327C14.5 22.4611 15.1716 23.1327 16 23.1327C16.8284 23.1327 17.5 22.4611 17.5 21.6327L17.5 17.4814Z" fill="#6F49E8"/>
<path fill-rule="evenodd" clip-rule="evenodd" d="M15.1902 0.83765C15.7166 0.66693 16.2834 0.66693 16.8098 0.83765L29.1848 4.85116C30.2662 5.20186 31 6.20832 31 7.34703V14.8827C31 24.1667 25.3438 30.94 16.8985 34.1267C16.32 34.345 15.68 34.345 15.1015 34.1267C6.65619 30.94 1.00001 24.1667 1 14.8827V7.3466C1 6.20752 1.73421 5.20175 2.81518 4.85116L15.1902 0.83765ZM16.1157 2.9779C16.0405 2.95351 15.9595 2.95351 15.8843 2.9779L3.50931 6.99142C3.35343 7.04197 3.25 7.18541 3.25 7.3466L3.25 14.8827C3.25001 23.0747 8.17113 29.1068 15.8958 32.0216C15.9624 32.0467 16.0376 32.0467 16.1042 32.0216C23.8289 29.1068 28.75 23.0747 28.75 14.8827V7.34703C28.75 7.18546 28.6462 7.04186 28.4907 6.99142L16.1157 2.9779Z" fill="#6F49E8"/>
<path d="M17.5 17.4814C18.3967 16.9626 19 15.9931 19 14.8827C19 13.2259 17.6569 11.8827 16 11.8827C14.3431 11.8827 13 13.2259 13 14.8827C13 15.9931 13.6033 16.9626 14.5 17.4814V21.6327C14.5 22.4611 15.1716 23.1327 16 23.1327C16.8284 23.1327 17.5 22.4611 17.5 21.6327L17.5 17.4814Z" stroke="#6F49E8"/>
<path fill-rule="evenodd" clip-rule="evenodd" d="M15.1902 0.83765C15.7166 0.66693 16.2834 0.66693 16.8098 0.83765L29.1848 4.85116C30.2662 5.20186 31 6.20832 31 7.34703V14.8827C31 24.1667 25.3438 30.94 16.8985 34.1267C16.32 34.345 15.68 34.345 15.1015 34.1267C6.65619 30.94 1.00001 24.1667 1 14.8827V7.3466C1 6.20752 1.73421 5.20175 2.81518 4.85116L15.1902 0.83765ZM16.1157 2.9779C16.0405 2.95351 15.9595 2.95351 15.8843 2.9779L3.50931 6.99142C3.35343 7.04197 3.25 7.18541 3.25 7.3466L3.25 14.8827C3.25001 23.0747 8.17113 29.1068 15.8958 32.0216C15.9624 32.0467 16.0376 32.0467 16.1042 32.0216C23.8289 29.1068 28.75 23.0747 28.75 14.8827V7.34703C28.75 7.18546 28.6462 7.04186 28.4907 6.99142L16.1157 2.9779Z" stroke="#6F49E8"/>
</svg>
