<svg width="27" height="28" viewBox="0 0 27 28" fill="none" xmlns="http://www.w3.org/2000/svg">
<path fill-rule="evenodd" clip-rule="evenodd" d="M13.5001 1.00972C9.27959 1.00972 5.8582 4.43119 5.8582 8.65176C5.8582 11.2771 7.18202 13.5932 9.19855 14.969C4.52363 16.6815 1.15616 21.1054 1.00047 26.3364C0.983349 26.9117 1.43582 27.3919 2.0111 27.409C2.58638 27.4261 3.06662 26.9737 3.08374 26.3984C3.25067 20.7897 7.85048 16.2938 13.5 16.2938C19.1495 16.2938 23.7493 20.7897 23.9163 26.3984C23.9334 26.9737 24.4136 27.4261 24.9889 27.409C25.5642 27.3919 26.0167 26.9117 25.9995 26.3364C25.8438 21.1055 22.4764 16.6816 17.8016 14.9691C19.8182 13.5933 21.1421 11.2771 21.1421 8.65176C21.1421 4.43119 17.7207 1.00972 13.5001 1.00972ZM7.94239 8.65176C7.94239 5.58223 10.4307 3.09391 13.5001 3.09391C16.5696 3.09391 19.0579 5.58223 19.0579 8.65176C19.0579 11.7213 16.5696 14.2096 13.5001 14.2096C10.4307 14.2096 7.94239 11.7213 7.94239 8.65176Z" fill="white" stroke="white" stroke-linecap="round"/>
</svg>
