<svg width="564" height="481" viewBox="0 0 564 481" fill="none" xmlns="http://www.w3.org/2000/svg">
<path d="M68.8255 480.5H305.074H448.834C464.26 480.5 479.304 475.68 491.879 466.709L507.706 455.417C540.481 432.035 541.465 383.517 509.664 358.815C478.651 334.724 478.669 287.711 509.699 263.643L520.796 255.036C553.115 229.969 557.643 182.712 530.676 151.919L480.162 94.2393C445.14 54.2483 383.362 53.4172 347.285 92.4518C314.906 127.485 260.885 130.958 224.32 100.357L212.535 90.4944C183.901 66.53 144.519 60.1721 109.845 73.9156C59.1924 93.992 33.206 150.497 50.8356 202.226L73.4639 268.623C84.3922 300.689 69.3553 335.853 38.6727 349.984C15.3146 360.742 0.341064 384.177 0.341064 409.978V411.743C0.341064 449.717 31.0026 480.5 68.8255 480.5Z" fill="#6F49E8"/>
<path d="M125.829 273.031L122.523 290.453L125.829 308.705C134.369 309.811 151.779 312.023 153.102 312.023C154.424 312.023 164.121 303.727 168.804 299.579L163.845 273.031C177.73 268.385 182.303 247.865 182.854 238.186C186.159 198.364 159.713 193.386 154.755 193.386C149.796 193.386 118.391 193.386 114.259 226.571C110.953 253.119 120.595 268.606 125.829 273.031Z" fill="white"/>
<path fill-rule="evenodd" clip-rule="evenodd" d="M134.863 198.989C126.315 202.934 117.831 210.791 115.841 226.77C112.589 252.885 122.11 267.794 126.856 271.806L127.57 272.41L124.145 290.46L127.189 307.267C131.417 307.813 137.269 308.559 142.367 309.19C145.158 309.536 147.72 309.846 149.665 310.07C150.638 310.182 151.452 310.272 152.06 310.333C152.365 310.364 152.613 310.387 152.8 310.403C152.842 310.406 152.88 310.409 152.915 310.412C152.976 310.381 153.057 310.337 153.16 310.276C153.497 310.079 153.956 309.772 154.524 309.362C155.654 308.548 157.107 307.404 158.686 306.115C161.547 303.779 164.757 301.014 167.07 298.979L162.022 271.953L163.341 271.512C169.646 269.402 174.007 263.619 176.883 256.866C179.744 250.15 180.994 242.789 181.262 238.095L181.263 238.074L181.264 238.053C182.885 218.535 177.212 207.861 170.831 202.037C164.362 196.134 156.92 194.987 154.755 194.987C152.308 194.987 143.516 194.995 134.863 198.989ZM152.785 310.47C152.785 310.469 152.792 310.466 152.807 310.462C152.792 310.468 152.785 310.47 152.785 310.47ZM154.741 191.785H154.755C157.548 191.785 165.808 193.127 172.976 199.668C180.228 206.287 186.124 218.007 184.445 238.298C184.158 243.284 182.846 251.011 179.816 258.125C176.974 264.797 172.496 271.212 165.66 274.058L170.538 300.178L169.859 300.779C167.508 302.862 163.896 305.988 160.699 308.599C159.103 309.902 157.592 311.092 156.385 311.962C155.785 312.395 155.232 312.769 154.768 313.041C154.537 313.176 154.299 313.304 154.068 313.403C153.884 313.481 153.521 313.624 153.102 313.624C152.653 313.624 151.187 313.468 149.302 313.251C147.343 313.025 144.771 312.714 141.977 312.368C136.388 311.676 129.897 310.846 125.625 310.293L124.469 310.143L120.901 290.446L124.094 273.618C118.317 268.11 109.452 252.27 112.677 226.373C114.819 209.166 124.104 200.431 133.531 196.08C142.836 191.785 152.208 191.785 154.741 191.785Z" fill="#181818"/>
<path d="M45.663 478.78H175.415L339.877 477.95C350.053 471.288 352.901 460.538 352.929 451.421C352.951 443.951 347.587 437.941 340.884 434.697C314.253 421.808 273.831 401.864 266.323 396.646C255.579 389.179 245.662 348.527 225.828 317.001C209.96 291.781 180.098 286.028 167.977 286.305C166.875 291.283 162.191 301.238 145.663 301.238C129.134 301.238 122.247 291.283 120.043 286.305C111.503 286.305 87.8116 290.951 67.977 309.535C43.2009 332.748 32.4548 385.787 22.5433 434.707L22.5226 434.809C14.5887 473.968 34.6437 479.886 45.663 478.78Z" fill="white"/>
<path fill-rule="evenodd" clip-rule="evenodd" d="M169.211 287.898C168.438 290.518 166.833 293.914 163.683 296.817C159.976 300.236 154.27 302.839 145.663 302.839C129.317 302.839 121.84 293.496 119.044 287.926C110.086 288.27 87.8242 293.129 69.0651 310.705C56.9921 322.017 48.2115 340.742 41.2063 362.964C34.2141 385.144 29.0658 410.546 24.106 435.026L24.0853 435.128C20.1634 454.485 23.2581 465.149 28.189 470.844C33.1304 476.551 40.2989 477.709 45.5043 477.187L45.5835 477.179H175.415L339.392 476.352C348.634 470.079 351.308 460.12 351.334 451.416C351.354 444.786 346.575 439.228 340.192 436.139C326.872 429.693 310.1 421.48 295.716 414.225C281.398 407.003 269.285 400.652 265.416 397.962C262.369 395.845 259.582 391.565 256.835 386.219C254.051 380.799 251.16 373.972 248.015 366.467C247.802 365.959 247.587 365.447 247.372 364.933C241.2 350.195 233.981 332.959 224.479 317.856C216.764 305.594 205.63 298.035 194.887 293.571C184.829 289.391 175.194 287.959 169.211 287.898ZM196.107 290.613C207.292 295.26 219.023 303.188 227.176 316.147C236.822 331.479 244.131 348.931 250.281 363.617C250.507 364.157 250.731 364.693 250.954 365.225C254.111 372.757 256.953 379.463 259.67 384.751C262.424 390.112 264.906 393.714 267.231 395.33C270.869 397.858 282.721 404.088 297.148 411.364C311.51 418.608 328.265 426.813 341.577 433.255C348.599 436.653 354.549 443.115 354.523 451.426C354.495 460.837 351.547 472.221 340.748 479.291L340.354 479.549L175.423 480.381L175.415 480.381H45.7413C39.9309 480.945 31.6123 479.678 25.7818 472.944C19.9139 466.167 16.9479 454.292 20.9599 434.49L20.9907 434.338C25.9394 409.913 31.1176 384.355 38.1656 361.998C45.2053 339.667 54.1859 320.266 66.8889 308.364C87.0579 289.467 111.156 284.704 120.043 284.704H121.079L121.5 285.655C123.53 290.24 129.944 299.638 145.663 299.638C153.584 299.638 158.485 297.263 161.526 294.459C164.598 291.627 165.919 288.222 166.42 285.958L166.691 284.733L167.94 284.705C174.223 284.561 184.939 285.972 196.107 290.613Z" fill="#181818"/>
<path d="M101.034 414.898L113.431 364.29L110.952 414.898L167.401 428.719C174.649 430.494 181.427 435.018 182.798 442.38C185.245 455.512 180.365 469.476 174.588 474.631C179.546 467.509 179.546 440.617 173.761 436.468C169.133 433.15 111.778 422.365 83.6791 417.387L101.034 414.898Z" fill="#181818"/>
<path d="M224.175 351.016L254.754 478.78H267.977L224.175 351.016Z" fill="#181818"/>
<path d="M134.917 256.438C131.611 275.685 126.928 277.732 124.999 276.349C101.859 261.416 102.417 213.704 116.735 197.534C129.958 182.601 139.875 188.408 167.148 181.771C194.421 175.134 203.512 186.749 198.553 201.682C191.415 223.179 168.801 211.638 163.016 214.127C157.231 216.616 149.793 223.253 146.487 236.527C143.181 249.801 141.528 247.312 139.049 239.845C136.57 232.379 129.958 221.593 124.999 234.868C121.032 245.487 129.958 253.673 134.917 256.438Z" fill="#181818"/>
<path d="M232.439 478.78C232.439 456.214 199.105 449.466 182.852 448.913C182.852 460.196 175.965 473.525 172.108 478.78H232.439Z" fill="white"/>
<path fill-rule="evenodd" clip-rule="evenodd" d="M181.257 447.257L182.906 447.313C191.163 447.594 203.775 449.442 214.382 454.126C224.943 458.789 234.033 466.527 234.033 478.78V480.381H168.952L170.824 477.83C172.665 475.323 175.29 470.795 177.451 465.5C179.616 460.195 181.257 454.262 181.257 448.913V447.257ZM184.401 450.585C184.106 456.029 182.435 461.733 180.402 466.714C178.744 470.776 176.813 474.436 175.105 477.179H230.782C230.039 467.744 222.732 461.311 213.098 457.057C203.63 452.876 192.362 451.029 184.401 450.585Z" fill="#181818"/>
<path d="M393.069 477.255C393.069 457.196 366.654 452.934 352.405 452.442C352.405 462.471 343.558 472.584 340.177 477.255H393.069Z" fill="white"/>
<path fill-rule="evenodd" clip-rule="evenodd" d="M350.81 450.785L352.46 450.842C359.664 451.091 370.061 452.291 378.713 456.041C387.386 459.801 394.664 466.316 394.664 477.255V478.856H337.046L338.887 476.314C339.362 475.658 339.921 474.922 340.536 474.115C342.213 471.911 344.299 469.17 346.195 466.029C348.778 461.747 350.81 457.017 350.81 452.442V450.785ZM353.927 454.11C353.507 458.979 351.333 463.692 348.923 467.688C347.085 470.733 345.017 473.5 343.38 475.654H391.411C390.757 467.467 385.06 462.28 377.448 458.981C369.919 455.717 360.827 454.468 353.927 454.11Z" fill="#181818"/>
<path fill-rule="evenodd" clip-rule="evenodd" d="M20.7544 448.834C20.3637 464.85 25.9582 478.78 43.029 478.78H58.0627C54.0959 452.232 33.1128 436.193 23.1951 431.491C22.9774 432.565 22.7602 433.637 22.5433 434.707L22.5227 434.809C21.4656 440.027 20.9053 444.683 20.7544 448.834Z" fill="#181818"/>
<path d="M147.983 272.778C155.68 275.354 161.013 273.851 163.685 272.778L166.164 284.393C155.902 283.105 150.121 275.729 147.983 272.778Z" fill="#181818"/>
<path d="M271.909 14.7658C271.909 7.91404 277.46 2.35954 284.307 2.35954H549.403C556.25 2.35954 561.801 7.91403 561.801 14.7658V280.042C561.801 286.894 556.25 292.448 549.403 292.448H284.307C277.46 292.448 271.909 286.894 271.909 280.042V14.7658Z" fill="white"/>
<path fill-rule="evenodd" clip-rule="evenodd" d="M270.051 14.7659C270.051 6.88705 276.434 0.5 284.307 0.5H549.403C557.276 0.5 563.659 6.88703 563.659 14.7658V280.042C563.659 287.921 557.276 294.308 549.403 294.308H284.307C276.434 294.308 270.051 287.921 270.051 280.042V14.7659ZM284.307 4.21909C278.486 4.21909 273.767 8.94104 273.767 14.7659V280.042C273.767 285.867 278.486 290.589 284.307 290.589H549.403C555.224 290.589 559.943 285.867 559.943 280.042V14.7658C559.943 8.94103 555.224 4.21909 549.403 4.21909H284.307Z" fill="#181818"/>
<path d="M271.909 14.7658C271.909 7.91403 277.46 2.35954 284.307 2.35954H549.403C556.25 2.35954 561.801 7.91403 561.801 14.7658V45.129H271.909V14.7658Z" fill="#181818"/>
<path d="M311.132 24.0485C311.132 29.1823 306.973 33.3441 301.843 33.3441C296.712 33.3441 292.553 29.1823 292.553 24.0485C292.553 18.9148 296.712 14.753 301.843 14.753C306.973 14.753 311.132 18.9148 311.132 24.0485Z" fill="white"/>
<path d="M342.098 24.0485C342.098 29.1823 337.94 33.3441 332.809 33.3441C327.679 33.3441 323.52 29.1823 323.52 24.0485C323.52 18.9148 327.679 14.753 332.809 14.753C337.94 14.753 342.098 18.9148 342.098 24.0485Z" fill="white"/>
<path d="M373.058 24.0485C373.058 29.1823 368.899 33.3441 363.768 33.3441C358.638 33.3441 354.479 29.1823 354.479 24.0485C354.479 18.9148 358.638 14.753 363.768 14.753C368.899 14.753 373.058 18.9148 373.058 24.0485Z" fill="white"/>
<path d="M131.302 117.813C128.475 123.503 120.134 125.365 116.317 125.585L115.901 149.697C116.807 150.523 119.213 152.869 121.583 155.641C122.961 157.816 141.394 157.499 150.438 157.068C152.432 156.589 156.571 155.387 157.175 154.407C157.93 153.182 164.058 130.831 160.612 125.394C157.855 121.045 147.035 121.693 141.969 122.561C145.139 118.207 144.936 110.87 143.969 105.157C143.454 102.112 140.094 100.666 137.292 102.028C135.394 102.95 134.284 104.945 134.135 107.031C133.925 109.991 133.19 114.012 131.302 117.813Z" fill="white"/>
<path d="M97.6496 122.475C97.6451 120.464 99.29 118.83 101.324 118.826L114.601 118.797C116.635 118.792 118.287 120.419 118.292 122.43L118.361 153.7C118.366 155.711 116.721 157.345 114.687 157.349L101.409 157.378C99.3759 157.382 97.7237 155.756 97.7192 153.745L97.6496 122.475Z" fill="#181818"/>
<path d="M207.051 43.5079L207.879 50.8945C207.93 51.344 207.726 51.7783 207.352 52.0205L202.591 55.101C201.566 55.7638 202.11 57.3779 203.34 57.3258L209.161 57.0794C209.586 57.0614 209.994 57.2697 210.235 57.6274L213.828 62.9732C214.503 63.9782 216.05 63.5193 216.028 62.3205L215.905 55.6858C215.898 55.2963 216.078 54.9315 216.39 54.7063L220.65 51.631C221.61 50.9382 221.056 49.3983 219.862 49.4394L214.677 49.618C214.261 49.6323 213.862 49.4298 213.622 49.0826L209.235 42.7294C208.517 41.6904 206.911 42.2629 207.051 43.5079Z" fill="#6F49E8"/>
<path d="M41.8152 265.16L39.7577 267.913C39.6325 268.08 39.4266 268.162 39.2237 268.125L36.6438 267.656C36.0887 267.555 35.7613 268.271 36.1925 268.643L38.2334 270.404C38.3824 270.533 38.4541 270.732 38.422 270.929L37.9423 273.87C37.8521 274.422 38.5188 274.758 38.8906 274.346L40.948 272.07C41.0688 271.937 41.2452 271.871 41.4217 271.894L43.8309 272.207C44.3737 272.277 44.674 271.582 44.2584 271.218L42.4537 269.636C42.3088 269.509 42.2383 269.314 42.2673 269.121L42.7978 265.589C42.8846 265.011 42.162 264.696 41.8152 265.16Z" fill="#6F49E8"/>
<path d="M316.629 358.587L271.864 460.04C269.617 465.133 273.355 470.851 278.93 470.851H415.525C418.662 470.851 421.487 468.956 422.673 466.058L464.173 364.605C466.246 359.536 462.51 353.987 457.025 353.987H323.695C320.634 353.987 317.862 355.791 316.629 358.587Z" fill="white"/>
<path fill-rule="evenodd" clip-rule="evenodd" d="M323.695 355.587C321.27 355.587 319.073 357.017 318.096 359.232L273.332 460.685C271.552 464.72 274.513 469.25 278.93 469.25H415.525C418.01 469.25 420.249 467.749 421.188 465.453L462.688 364C464.331 359.984 461.371 355.587 457.025 355.587H323.695ZM315.161 357.942C316.651 354.565 319.998 352.386 323.695 352.386H457.025C463.65 352.386 468.162 359.088 465.658 365.21L424.157 466.663C422.725 470.163 419.313 472.451 415.525 472.451H278.93C272.197 472.451 267.683 465.545 270.397 459.395L315.161 357.942Z" fill="#181818"/>
<path d="M358.35 404.302C360.861 398.492 366.594 394.728 372.934 394.728C384.351 394.728 392.038 406.392 387.517 416.855L386.39 419.463C383.879 425.274 378.147 429.037 371.807 429.037C360.39 429.037 352.702 417.373 357.223 406.91L358.35 404.302Z" fill="#181818"/>
<path d="M413.38 480.5H176.319C172.463 480.5 169.336 477.38 169.336 473.531C169.336 469.682 172.463 466.562 176.319 466.562H413.38C418.384 466.562 421.764 471.66 419.807 476.256C418.712 478.829 416.182 480.5 413.38 480.5Z" fill="#181818"/>
<path d="M469.121 406.468C460.829 411.212 473.008 434.055 480.409 445.306C480.671 445.705 481.159 445.873 481.615 445.735L490.197 443.125C490.718 442.967 491.047 442.448 490.963 441.908C487.888 422.087 479.53 400.513 469.121 406.468Z" fill="#181818"/>
<path d="M494.61 345.086C469.438 350.966 476.397 412.021 483.227 442.902C483.364 443.52 483.988 443.867 484.59 443.684L504.881 437.512C505.264 437.395 505.551 437.091 505.634 436.696C512.582 403.287 519.93 339.171 494.61 345.086Z" fill="white"/>
<path fill-rule="evenodd" clip-rule="evenodd" d="M484.285 442.63L504.571 436.459C508.036 419.792 511.59 395.515 511.133 376.177C510.904 366.48 509.668 358.175 507.012 352.695C505.692 349.97 504.058 348.024 502.1 346.914C500.165 345.816 497.795 345.47 494.85 346.158C489.04 347.515 484.971 352.062 482.263 358.911C479.552 365.769 478.282 374.768 478.007 384.644C477.458 404.367 480.883 427.239 484.285 442.63ZM480.241 358.107C483.094 350.889 487.595 345.6 494.37 344.017C497.755 343.226 500.694 343.589 503.175 344.996C505.635 346.391 507.527 348.744 508.97 351.72C511.84 357.642 513.08 366.344 513.31 376.112C513.773 395.699 510.18 420.174 506.699 436.914C506.531 437.722 505.939 438.334 505.189 438.563L484.9 444.735C483.723 445.093 482.446 444.416 482.165 443.146C478.739 427.657 475.274 404.577 475.83 384.594C476.108 374.611 477.391 365.314 480.241 358.107Z" fill="#181818"/>
<path d="M518.368 380.187C503.346 382.523 500.65 419.249 501.123 438.409C501.141 439.127 501.83 439.615 502.512 439.407L513.497 436.065C513.813 435.969 514.066 435.744 514.19 435.436C522.1 415.888 533.642 377.812 518.368 380.187Z" fill="#181818"/>
<path fill-rule="evenodd" clip-rule="evenodd" d="M496.359 370.226L496.598 353.809L494.418 353.79L493.93 387.399L485.563 379.31L484.05 380.902L493.887 390.411L493.406 423.483L486.074 417.321L484.673 419.013L493.365 426.318L493.155 440.762L495.334 440.781L495.763 411.304L504.478 402.69L502.957 401.124L495.808 408.19L496.313 373.445L503.519 365.854L501.949 364.339L496.359 370.226Z" fill="#181818"/>
<path d="M465.696 436.437C465.261 434.384 466.807 432.448 468.881 432.448H518.582C520.611 432.448 522.146 434.304 521.789 436.326L514.479 477.781C514.201 479.354 512.85 480.5 511.272 480.5H477.653C476.117 480.5 474.79 479.413 474.468 477.893L465.696 436.437Z" fill="#181818"/>
<path d="M252.316 163.524C250.531 168.5 254.233 174.504 256.307 176.884L241.329 194.182C240.308 194.127 237.805 189.802 233.244 188.636C228.683 187.471 224.611 184.079 219.642 178.493C218.776 177.038 214.973 172.358 215.529 167.392C216.083 162.426 225.556 151.771 230.816 150.642C235.024 149.739 242.165 155.762 244.572 159.255C245.602 156.04 247.147 154.212 250.176 151.075C252.304 149.608 256.086 149.365 256.888 151.81C257.431 153.466 256.874 155.281 255.706 156.582C254.048 158.427 253.509 160.199 252.316 163.524Z" fill="white"/>
<path fill-rule="evenodd" clip-rule="evenodd" d="M254.087 148.784C252.51 148.71 250.772 149.212 249.493 150.095L249.393 150.163L249.31 150.249C246.897 152.749 245.319 154.52 244.211 156.883C242.848 155.353 241.008 153.688 239.062 152.325C237.704 151.373 236.252 150.539 234.831 150.001C233.428 149.469 231.938 149.181 230.564 149.476C228.99 149.814 227.242 150.818 225.561 152.087C223.852 153.377 222.102 155.025 220.515 156.782C218.927 158.539 217.479 160.431 216.386 162.22C215.312 163.977 214.504 165.755 214.336 167.261C214.021 170.073 214.943 172.729 215.978 174.792C216.718 176.269 217.632 177.631 218.185 178.455C218.377 178.741 218.525 178.963 218.608 179.101L218.666 179.199L218.742 179.284C223.73 184.891 228.008 188.531 232.944 189.792C234.933 190.3 236.521 191.511 237.792 192.696C238.196 193.073 238.51 193.388 238.81 193.689C239.019 193.899 239.221 194.103 239.442 194.315C239.675 194.538 239.925 194.765 240.172 194.943C240.382 195.094 240.772 195.347 241.264 195.373L241.853 195.404L257.893 176.88L257.215 176.102C256.253 174.999 254.886 173.017 253.981 170.738C253.07 168.444 252.693 166.023 253.447 163.923C253.54 163.663 253.629 163.414 253.714 163.176C254.746 160.287 255.247 158.884 256.601 157.375C257.991 155.828 258.732 153.581 258.029 151.439C257.413 149.558 255.664 148.858 254.087 148.784ZM253.971 151.167C255.019 151.216 255.561 151.617 255.746 152.18C256.13 153.35 255.757 154.734 254.81 155.788C253.128 157.661 252.47 159.514 251.487 162.277C251.39 162.55 251.29 162.832 251.185 163.124C250.153 166 250.735 169.07 251.747 171.617C252.576 173.704 253.739 175.556 254.743 176.862L241.115 192.601C241.113 192.6 241.112 192.599 241.111 192.598C240.978 192.47 240.803 192.295 240.602 192.094C240.257 191.749 239.839 191.33 239.436 190.955C238.06 189.672 236.115 188.138 233.544 187.481C229.379 186.417 225.529 183.297 220.614 177.784C220.451 177.519 220.252 177.223 220.029 176.892C219.486 176.085 218.797 175.061 218.127 173.726C217.183 171.844 216.481 169.677 216.722 167.523C216.831 166.546 217.415 165.13 218.438 163.457C219.44 161.817 220.793 160.043 222.301 158.375C223.808 156.706 225.448 155.168 227.012 153.987C228.603 152.786 230.012 152.035 231.068 151.808C231.798 151.651 232.778 151.777 233.973 152.23C235.15 152.676 236.423 153.397 237.677 154.275C240.198 156.042 242.474 158.324 243.581 159.93L244.97 161.946L245.716 159.616C246.648 156.707 248.005 155.051 250.953 151.992C251.796 151.445 252.963 151.12 253.971 151.167ZM241.646 193.051C241.646 193.051 241.641 193.048 241.632 193.043C241.642 193.049 241.646 193.051 241.646 193.051Z" fill="#181818"/>
<path d="M391.373 119.955L387.338 134.661C385.321 142.013 391.373 150.703 408.185 150.703C421.635 150.703 423.652 138.226 422.98 131.987L419.617 115.276C422.98 111.934 425.669 109.929 425.669 93.8863C425.669 73.8334 414.91 66.4806 402.133 66.4806C389.356 66.4806 378.596 77.164 378.596 96.5601C378.595 113.271 387.562 118.618 391.373 119.955Z" fill="white"/>
<path fill-rule="evenodd" clip-rule="evenodd" d="M386.494 75.0123C382.425 79.8478 379.796 87.0768 379.796 96.5601C379.796 104.692 381.973 109.946 384.515 113.306C387.066 116.678 390.048 118.225 391.773 118.83L392.825 119.199L388.496 134.975C387.609 138.21 388.473 141.765 391.516 144.563C394.585 147.385 399.968 149.51 408.185 149.51C414.444 149.51 417.916 146.653 419.82 143.121C421.762 139.517 422.101 135.129 421.792 132.167L418.314 114.884L418.768 114.432C418.897 114.304 419.024 114.179 419.149 114.056C420.668 112.556 421.865 111.374 422.779 108.928C423.795 106.21 424.469 101.873 424.469 93.8863C424.469 84.0655 421.837 77.5547 417.835 73.4991C413.834 69.4436 408.295 67.6738 402.133 67.6738C396.101 67.6738 390.553 70.1874 386.494 75.0123ZM384.652 73.4813C389.167 68.1155 395.388 65.2874 402.133 65.2874C408.747 65.2874 414.977 67.194 419.55 71.8281C424.122 76.4622 426.87 83.6543 426.87 93.8863C426.87 101.943 426.199 106.629 425.029 109.759C423.942 112.67 422.434 114.18 420.921 115.671L424.167 131.806L424.173 131.86C424.526 135.137 424.185 140.075 421.936 144.248C419.637 148.514 415.376 151.896 408.185 151.896C399.59 151.896 393.541 149.676 389.885 146.315C386.204 142.93 385.05 138.464 386.18 134.347L389.933 120.668C387.86 119.754 385.041 117.972 382.596 114.74C379.701 110.914 377.395 105.139 377.395 96.56C377.396 86.6473 380.146 78.8365 384.652 73.4813Z" fill="#181818"/>
<path d="M403.475 143.35C415.849 143.35 422.081 135.329 423.65 131.318L423.714 131.318C435.6 131.318 454.964 131.318 474.757 149.366C494.586 167.446 511.143 192.814 526.122 237.976C531.99 255.667 532.646 280.117 530.853 289.698H328.232C305.369 289.698 287.234 285.637 280.927 277.943C266.132 259.896 234.643 205.477 235.988 198.793C237.333 192.109 254.144 170.927 258.851 172.932C262.617 174.536 281.715 188.605 301.425 203.495C324.289 143.35 371.197 130.427 386.664 131.318C387.112 135.329 391.102 143.35 403.475 143.35Z" fill="white"/>
<path fill-rule="evenodd" clip-rule="evenodd" d="M300.877 201.583C324.132 142.221 370.876 129.214 386.733 130.127L387.745 130.186L387.857 131.187C388.052 132.936 389.047 135.681 391.433 137.982C393.79 140.253 397.572 142.157 403.476 142.157C415.256 142.157 421.103 134.536 422.531 130.886L422.829 130.125L423.722 130.125C435.674 130.125 455.432 130.125 475.569 148.487C495.592 166.745 512.24 192.312 527.262 237.603C530.238 246.574 531.881 257.215 532.558 266.795C533.234 276.36 532.956 284.983 532.033 289.916L531.851 290.891H328.232C316.738 290.891 306.388 289.872 298.087 287.866C289.84 285.872 283.405 282.856 279.996 278.697C272.533 269.592 260.921 251.404 251.362 234.697C246.577 226.334 242.288 218.312 239.276 211.95C237.771 208.772 236.574 205.986 235.793 203.767C235.403 202.659 235.108 201.668 234.933 200.827C234.765 200.02 234.678 199.221 234.811 198.559C235.195 196.651 236.611 193.909 238.451 191.013C240.321 188.069 242.728 184.814 245.239 181.837C247.744 178.867 250.385 176.134 252.729 174.258C253.897 173.323 255.038 172.562 256.088 172.102C257.094 171.66 258.268 171.385 259.324 171.835C260.394 172.291 262.395 173.545 264.996 175.304C267.639 177.092 271.007 179.474 274.866 182.267C282.252 187.612 291.46 194.477 300.877 201.583ZM385.64 132.474C369.763 132.183 324.762 145.48 302.548 203.917L301.979 205.413L300.699 204.445C290.846 197.002 281.152 189.768 273.452 184.196C269.602 181.41 266.258 179.044 263.645 177.277C260.99 175.481 259.192 174.375 258.378 174.029C258.258 173.978 257.876 173.926 257.057 174.285C256.281 174.625 255.326 175.243 254.235 176.116C252.061 177.856 249.533 180.46 247.079 183.371C244.63 186.274 242.288 189.443 240.481 192.287C238.643 195.181 237.454 197.593 237.165 199.027C237.13 199.201 237.132 199.611 237.284 200.343C237.43 201.043 237.688 201.924 238.059 202.979C238.801 205.086 239.959 207.789 241.448 210.934C244.424 217.22 248.68 225.183 253.449 233.517C262.996 250.202 274.526 268.247 281.857 277.19C284.755 280.725 290.542 283.586 298.654 285.547C306.714 287.495 316.863 288.505 328.232 288.505H529.838C530.577 283.713 530.789 275.81 530.163 266.962C529.494 257.499 527.875 247.07 524.982 238.35C510.045 193.317 493.58 168.148 473.946 150.245C454.894 132.874 436.301 132.519 424.439 132.512C422.307 137.029 415.724 144.543 403.476 144.543C397.005 144.543 392.606 142.436 389.762 139.695C387.349 137.369 386.105 134.633 385.64 132.474Z" fill="#181818"/>
<path d="M358.419 105.918C348.198 116.613 348.781 135.329 350.35 143.35C369.179 132.12 383.301 130.65 388.009 131.318L391.371 119.955C383.974 117.95 379.266 111.265 378.594 95.8914C378.056 83.5923 384.198 75.17 387.336 72.4962C398.096 71.8278 403.476 85.1964 406.838 90.5439C409.528 94.8218 411.545 94.1088 412.218 93.2176C415.58 85.1964 421.632 84.528 422.977 93.2176C424.053 100.169 418.942 103.69 416.253 104.581L422.977 131.318C436.427 130.783 451.894 135.552 457.946 138.003C459.964 116.613 443.152 109.26 437.772 95.8914C432.392 82.5227 439.789 75.8384 434.409 67.1488C430.422 60.7082 422.977 59.796 418.27 58.4592C413.563 57.1223 410.873 51.7748 405.493 49.1011C396.078 45.7589 387.112 54.0029 384.646 59.796C383.077 59.5732 378.594 60.1971 373.214 64.475C357.747 75.1699 371.197 92.5492 358.419 105.918Z" fill="#181818"/>
<path d="M466.204 208.197C472.511 237.976 479.776 280.035 478.818 289.698H488.279C488.62 271.054 471.723 218.385 466.204 208.197Z" fill="#181818"/>
<path d="M405.492 119.287C397.423 121.426 392.715 120.624 391.37 119.955L389.353 127.308C397.961 128.377 403.699 122.406 405.492 119.287Z" fill="#181818"/>
<path d="M332.175 199.577C326.499 223.4 322.977 269.584 321.926 289.698H315.619C316.88 257.098 327.182 216.034 332.175 199.577Z" fill="#181818"/>
<path d="M283.294 279.511C304.108 274.495 315.093 277.421 317.984 279.511L316.407 289.698C300.639 289.698 287.761 282.907 283.294 279.511Z" fill="#181818"/>
</svg>
